<mxfile host="app.diagrams.net" modified="2023-12-03T04:27:00.134Z" agent="Mozilla/5.0 (Windows NT 10.0; Win64; x64) AppleWebKit/537.36 (KHTML, like Gecko) Chrome/119.0.0.0 Safari/537.36 Edg/119.0.0.0" etag="zOe0hQB0uBGAly6gWVW5" version="21.1.8" type="github">
  <diagram name="Page-1" id="oks0D3BsidMHvf9juuu7">
    <mxGraphModel dx="1242" dy="543" grid="1" gridSize="10" guides="1" tooltips="1" connect="1" arrows="1" fold="1" page="1" pageScale="1" pageWidth="827" pageHeight="2000" math="0" shadow="0">
      <root>
        <mxCell id="0" />
        <mxCell id="1" parent="0" />
        <mxCell id="ogvpfiVw8rrW0xA83ZVV-1" value="Game Server" style="whiteSpace=wrap;html=1;aspect=fixed;" vertex="1" parent="1">
          <mxGeometry x="350" y="232.5" width="75" height="75" as="geometry" />
        </mxCell>
        <mxCell id="ogvpfiVw8rrW0xA83ZVV-2" value="MySQL Database" style="shape=datastore;whiteSpace=wrap;html=1;" vertex="1" parent="1">
          <mxGeometry x="480" y="235" width="70" height="70" as="geometry" />
        </mxCell>
        <mxCell id="ogvpfiVw8rrW0xA83ZVV-3" value="Game Client" style="whiteSpace=wrap;html=1;aspect=fixed;" vertex="1" parent="1">
          <mxGeometry x="200" y="230" width="80" height="80" as="geometry" />
        </mxCell>
        <mxCell id="ogvpfiVw8rrW0xA83ZVV-4" value="" style="endArrow=none;html=1;rounded=0;exitX=1;exitY=0.5;exitDx=0;exitDy=0;entryX=0;entryY=0.5;entryDx=0;entryDy=0;" edge="1" parent="1" source="ogvpfiVw8rrW0xA83ZVV-3" target="ogvpfiVw8rrW0xA83ZVV-1">
          <mxGeometry width="50" height="50" relative="1" as="geometry">
            <mxPoint x="310" y="380" as="sourcePoint" />
            <mxPoint x="360" y="330" as="targetPoint" />
          </mxGeometry>
        </mxCell>
        <mxCell id="ogvpfiVw8rrW0xA83ZVV-5" value="" style="endArrow=none;html=1;rounded=0;exitX=1;exitY=0.5;exitDx=0;exitDy=0;entryX=0;entryY=0.5;entryDx=0;entryDy=0;" edge="1" parent="1" source="ogvpfiVw8rrW0xA83ZVV-1" target="ogvpfiVw8rrW0xA83ZVV-2">
          <mxGeometry width="50" height="50" relative="1" as="geometry">
            <mxPoint x="450" y="210" as="sourcePoint" />
            <mxPoint x="460" y="310" as="targetPoint" />
          </mxGeometry>
        </mxCell>
        <mxCell id="ogvpfiVw8rrW0xA83ZVV-6" value="Cache" style="shape=datastore;whiteSpace=wrap;html=1;" vertex="1" parent="1">
          <mxGeometry x="210" y="370" width="60" height="60" as="geometry" />
        </mxCell>
        <mxCell id="ogvpfiVw8rrW0xA83ZVV-7" value="" style="endArrow=none;html=1;rounded=0;exitX=0.5;exitY=0;exitDx=0;exitDy=0;entryX=0.5;entryY=1;entryDx=0;entryDy=0;" edge="1" parent="1" source="ogvpfiVw8rrW0xA83ZVV-6" target="ogvpfiVw8rrW0xA83ZVV-3">
          <mxGeometry width="50" height="50" relative="1" as="geometry">
            <mxPoint x="300" y="290" as="sourcePoint" />
            <mxPoint x="370" y="290" as="targetPoint" />
          </mxGeometry>
        </mxCell>
      </root>
    </mxGraphModel>
  </diagram>
</mxfile>
